<mxfile host="Electron" modified="2023-10-05T14:22:01.923Z" agent="Mozilla/5.0 (Windows NT 10.0; Win64; x64) AppleWebKit/537.36 (KHTML, like Gecko) draw.io/21.7.5 Chrome/114.0.5735.289 Electron/25.8.1 Safari/537.36" etag="UEI3nMqYLuHB1ZEl5hYa" version="21.7.5" type="device">
  <diagram id="C5RBs43oDa-KdzZeNtuy" name="Page-1">
    <mxGraphModel dx="326" dy="599" grid="1" gridSize="10" guides="1" tooltips="1" connect="1" arrows="1" fold="1" page="1" pageScale="1" pageWidth="827" pageHeight="1169" math="0" shadow="0">
      <root>
        <mxCell id="WIyWlLk6GJQsqaUBKTNV-0" />
        <mxCell id="WIyWlLk6GJQsqaUBKTNV-1" parent="WIyWlLk6GJQsqaUBKTNV-0" />
        <mxCell id="zkfFHV4jXpPFQw0GAbJ--0" value="ClienteDeCorreo" style="swimlane;fontStyle=0;align=center;verticalAlign=top;childLayout=stackLayout;horizontal=1;startSize=26;horizontalStack=0;resizeParent=1;resizeLast=0;collapsible=1;marginBottom=0;rounded=0;shadow=0;strokeWidth=1;" parent="WIyWlLk6GJQsqaUBKTNV-1" vertex="1">
          <mxGeometry x="460" y="110" width="310" height="160" as="geometry">
            <mxRectangle x="230" y="140" width="160" height="26" as="alternateBounds" />
          </mxGeometry>
        </mxCell>
        <mxCell id="zkfFHV4jXpPFQw0GAbJ--4" value="" style="line;html=1;strokeWidth=1;align=left;verticalAlign=middle;spacingTop=-1;spacingLeft=3;spacingRight=3;rotatable=0;labelPosition=right;points=[];portConstraint=eastwest;" parent="zkfFHV4jXpPFQw0GAbJ--0" vertex="1">
          <mxGeometry y="26" width="310" height="8" as="geometry" />
        </mxCell>
        <mxCell id="zkfFHV4jXpPFQw0GAbJ--5" value="+ &lt;&lt;create&gt;&gt; ClienteDeCorreo(inbox:Carpeta)&#xa;+ recibir(email:Email)&#xa;+ mover(email:Email; origen:Carpeta, destino:Carpeta)&#xa;+ buscar(texto:String): Email&#xa;+ espacioOcupado(): Integer&#xa;+ agregarCarpeta(c:Carpeta)&#xa;+ getCarpetas(): Carpeta [*]&#xa;+ getInbox(): Carpeta" style="text;align=left;verticalAlign=top;spacingLeft=4;spacingRight=4;overflow=hidden;rotatable=0;points=[[0,0.5],[1,0.5]];portConstraint=eastwest;" parent="zkfFHV4jXpPFQw0GAbJ--0" vertex="1">
          <mxGeometry y="34" width="310" height="126" as="geometry" />
        </mxCell>
        <mxCell id="xNBX-Jx2Am1dlPCMJj-s-0" value="&lt;span style=&quot;font-weight: normal;&quot;&gt;Carpeta&lt;/span&gt;" style="swimlane;fontStyle=1;align=center;verticalAlign=top;childLayout=stackLayout;horizontal=1;startSize=26;horizontalStack=0;resizeParent=1;resizeParentMax=0;resizeLast=0;collapsible=1;marginBottom=0;whiteSpace=wrap;html=1;" vertex="1" parent="WIyWlLk6GJQsqaUBKTNV-1">
          <mxGeometry x="490" y="340" width="220" height="180" as="geometry" />
        </mxCell>
        <mxCell id="xNBX-Jx2Am1dlPCMJj-s-1" value="- nombre: String" style="text;strokeColor=none;fillColor=none;align=left;verticalAlign=top;spacingLeft=4;spacingRight=4;overflow=hidden;rotatable=0;points=[[0,0.5],[1,0.5]];portConstraint=eastwest;whiteSpace=wrap;html=1;" vertex="1" parent="xNBX-Jx2Am1dlPCMJj-s-0">
          <mxGeometry y="26" width="220" height="26" as="geometry" />
        </mxCell>
        <mxCell id="xNBX-Jx2Am1dlPCMJj-s-2" value="" style="line;strokeWidth=1;fillColor=none;align=left;verticalAlign=middle;spacingTop=-1;spacingLeft=3;spacingRight=3;rotatable=0;labelPosition=right;points=[];portConstraint=eastwest;strokeColor=inherit;" vertex="1" parent="xNBX-Jx2Am1dlPCMJj-s-0">
          <mxGeometry y="52" width="220" height="8" as="geometry" />
        </mxCell>
        <mxCell id="xNBX-Jx2Am1dlPCMJj-s-3" value="+ &amp;lt;&amp;lt;create&amp;gt;&amp;gt; Carpeta (nombre: String)&lt;br&gt;+ tamaño(): Integer&lt;br&gt;+ agregarEmail(e: Email)&lt;br&gt;+ eliminarEmail(e: Email)&lt;br&gt;+ buscar(texto: String): Email&lt;br&gt;+ getEmails(): Email [*]&lt;br&gt;+ getNombre(): String" style="text;strokeColor=none;fillColor=none;align=left;verticalAlign=top;spacingLeft=4;spacingRight=4;overflow=hidden;rotatable=0;points=[[0,0.5],[1,0.5]];portConstraint=eastwest;whiteSpace=wrap;html=1;" vertex="1" parent="xNBX-Jx2Am1dlPCMJj-s-0">
          <mxGeometry y="60" width="220" height="120" as="geometry" />
        </mxCell>
        <mxCell id="xNBX-Jx2Am1dlPCMJj-s-4" value="Email" style="swimlane;fontStyle=1;align=center;verticalAlign=top;childLayout=stackLayout;horizontal=1;startSize=26;horizontalStack=0;resizeParent=1;resizeParentMax=0;resizeLast=0;collapsible=1;marginBottom=0;whiteSpace=wrap;html=1;" vertex="1" parent="WIyWlLk6GJQsqaUBKTNV-1">
          <mxGeometry x="70" y="340" width="270" height="180" as="geometry" />
        </mxCell>
        <mxCell id="xNBX-Jx2Am1dlPCMJj-s-5" value="- titulo: String&lt;br&gt;- cuerpo: String" style="text;strokeColor=none;fillColor=none;align=left;verticalAlign=top;spacingLeft=4;spacingRight=4;overflow=hidden;rotatable=0;points=[[0,0.5],[1,0.5]];portConstraint=eastwest;whiteSpace=wrap;html=1;" vertex="1" parent="xNBX-Jx2Am1dlPCMJj-s-4">
          <mxGeometry y="26" width="270" height="34" as="geometry" />
        </mxCell>
        <mxCell id="xNBX-Jx2Am1dlPCMJj-s-6" value="" style="line;strokeWidth=1;fillColor=none;align=left;verticalAlign=middle;spacingTop=-1;spacingLeft=3;spacingRight=3;rotatable=0;labelPosition=right;points=[];portConstraint=eastwest;strokeColor=inherit;" vertex="1" parent="xNBX-Jx2Am1dlPCMJj-s-4">
          <mxGeometry y="60" width="270" height="8" as="geometry" />
        </mxCell>
        <mxCell id="xNBX-Jx2Am1dlPCMJj-s-7" value="+ &amp;lt;&amp;lt;create&amp;gt;&amp;gt; Email(titulo: String, cuerpo: String)&lt;br&gt;+ tamaño(): Integer&lt;br&gt;+ buscar(texto: String): Email&lt;br&gt;+ agregarArchivo(a: Archivo)&lt;br&gt;+ adjuntos(): Archivo[*]&lt;br&gt;+ getTitulo(): String&lt;br&gt;+ getCuerpo(): String" style="text;strokeColor=none;fillColor=none;align=left;verticalAlign=top;spacingLeft=4;spacingRight=4;overflow=hidden;rotatable=0;points=[[0,0.5],[1,0.5]];portConstraint=eastwest;whiteSpace=wrap;html=1;" vertex="1" parent="xNBX-Jx2Am1dlPCMJj-s-4">
          <mxGeometry y="68" width="270" height="112" as="geometry" />
        </mxCell>
        <mxCell id="xNBX-Jx2Am1dlPCMJj-s-8" value="&lt;span style=&quot;font-weight: normal;&quot;&gt;Archivo&lt;/span&gt;" style="swimlane;fontStyle=1;align=center;verticalAlign=top;childLayout=stackLayout;horizontal=1;startSize=26;horizontalStack=0;resizeParent=1;resizeParentMax=0;resizeLast=0;collapsible=1;marginBottom=0;whiteSpace=wrap;html=1;" vertex="1" parent="WIyWlLk6GJQsqaUBKTNV-1">
          <mxGeometry x="95" y="630" width="220" height="130" as="geometry" />
        </mxCell>
        <mxCell id="xNBX-Jx2Am1dlPCMJj-s-9" value="- nombre: String" style="text;strokeColor=none;fillColor=none;align=left;verticalAlign=top;spacingLeft=4;spacingRight=4;overflow=hidden;rotatable=0;points=[[0,0.5],[1,0.5]];portConstraint=eastwest;whiteSpace=wrap;html=1;" vertex="1" parent="xNBX-Jx2Am1dlPCMJj-s-8">
          <mxGeometry y="26" width="220" height="26" as="geometry" />
        </mxCell>
        <mxCell id="xNBX-Jx2Am1dlPCMJj-s-10" value="" style="line;strokeWidth=1;fillColor=none;align=left;verticalAlign=middle;spacingTop=-1;spacingLeft=3;spacingRight=3;rotatable=0;labelPosition=right;points=[];portConstraint=eastwest;strokeColor=inherit;" vertex="1" parent="xNBX-Jx2Am1dlPCMJj-s-8">
          <mxGeometry y="52" width="220" height="8" as="geometry" />
        </mxCell>
        <mxCell id="xNBX-Jx2Am1dlPCMJj-s-11" value="+ &amp;lt;&amp;lt;create&amp;gt;&amp;gt; Archivo(nombre: String)&lt;br&gt;+ tamaño(): Integer&lt;br&gt;+ getNombre(): String&lt;br&gt;+ setNombre()" style="text;strokeColor=none;fillColor=none;align=left;verticalAlign=top;spacingLeft=4;spacingRight=4;overflow=hidden;rotatable=0;points=[[0,0.5],[1,0.5]];portConstraint=eastwest;whiteSpace=wrap;html=1;" vertex="1" parent="xNBX-Jx2Am1dlPCMJj-s-8">
          <mxGeometry y="60" width="220" height="70" as="geometry" />
        </mxCell>
        <mxCell id="xNBX-Jx2Am1dlPCMJj-s-12" value="" style="endArrow=classic;html=1;rounded=0;exitX=0.21;exitY=1;exitDx=0;exitDy=0;exitPerimeter=0;entryX=0.162;entryY=-0.005;entryDx=0;entryDy=0;entryPerimeter=0;" edge="1" parent="WIyWlLk6GJQsqaUBKTNV-1" source="zkfFHV4jXpPFQw0GAbJ--5" target="xNBX-Jx2Am1dlPCMJj-s-0">
          <mxGeometry width="50" height="50" relative="1" as="geometry">
            <mxPoint x="530" y="500" as="sourcePoint" />
            <mxPoint x="580" y="450" as="targetPoint" />
          </mxGeometry>
        </mxCell>
        <mxCell id="xNBX-Jx2Am1dlPCMJj-s-13" value="inbox&lt;br&gt;1" style="text;html=1;align=center;verticalAlign=middle;resizable=0;points=[];autosize=1;strokeColor=none;fillColor=none;" vertex="1" parent="WIyWlLk6GJQsqaUBKTNV-1">
          <mxGeometry x="480" y="290" width="50" height="40" as="geometry" />
        </mxCell>
        <mxCell id="xNBX-Jx2Am1dlPCMJj-s-14" value="" style="endArrow=classic;html=1;rounded=0;exitX=0.607;exitY=1.003;exitDx=0;exitDy=0;exitPerimeter=0;" edge="1" parent="WIyWlLk6GJQsqaUBKTNV-1" source="zkfFHV4jXpPFQw0GAbJ--5">
          <mxGeometry width="50" height="50" relative="1" as="geometry">
            <mxPoint x="600" y="410" as="sourcePoint" />
            <mxPoint x="648" y="340" as="targetPoint" />
          </mxGeometry>
        </mxCell>
        <mxCell id="xNBX-Jx2Am1dlPCMJj-s-15" value="carpetas&lt;br&gt;*" style="text;html=1;align=center;verticalAlign=middle;resizable=0;points=[];autosize=1;strokeColor=none;fillColor=none;" vertex="1" parent="WIyWlLk6GJQsqaUBKTNV-1">
          <mxGeometry x="640" y="290" width="70" height="40" as="geometry" />
        </mxCell>
        <mxCell id="xNBX-Jx2Am1dlPCMJj-s-16" value="" style="endArrow=classic;html=1;rounded=0;exitX=0;exitY=0.5;exitDx=0;exitDy=0;" edge="1" parent="WIyWlLk6GJQsqaUBKTNV-1" source="xNBX-Jx2Am1dlPCMJj-s-3">
          <mxGeometry width="50" height="50" relative="1" as="geometry">
            <mxPoint x="380" y="480" as="sourcePoint" />
            <mxPoint x="340" y="460" as="targetPoint" />
          </mxGeometry>
        </mxCell>
        <mxCell id="xNBX-Jx2Am1dlPCMJj-s-17" value="emails&lt;br&gt;0..*" style="text;html=1;align=center;verticalAlign=middle;resizable=0;points=[];autosize=1;strokeColor=none;fillColor=none;" vertex="1" parent="WIyWlLk6GJQsqaUBKTNV-1">
          <mxGeometry x="384" y="425" width="60" height="40" as="geometry" />
        </mxCell>
        <mxCell id="xNBX-Jx2Am1dlPCMJj-s-18" value="" style="endArrow=classic;html=1;rounded=0;exitX=0.458;exitY=0.997;exitDx=0;exitDy=0;exitPerimeter=0;entryX=0.453;entryY=-0.006;entryDx=0;entryDy=0;entryPerimeter=0;" edge="1" parent="WIyWlLk6GJQsqaUBKTNV-1" source="xNBX-Jx2Am1dlPCMJj-s-7" target="xNBX-Jx2Am1dlPCMJj-s-8">
          <mxGeometry width="50" height="50" relative="1" as="geometry">
            <mxPoint x="250" y="660" as="sourcePoint" />
            <mxPoint x="253" y="620" as="targetPoint" />
          </mxGeometry>
        </mxCell>
        <mxCell id="xNBX-Jx2Am1dlPCMJj-s-19" value="adjuntos&lt;br&gt;0..*" style="text;html=1;align=center;verticalAlign=middle;resizable=0;points=[];autosize=1;strokeColor=none;fillColor=none;" vertex="1" parent="WIyWlLk6GJQsqaUBKTNV-1">
          <mxGeometry x="130" y="565" width="70" height="40" as="geometry" />
        </mxCell>
      </root>
    </mxGraphModel>
  </diagram>
</mxfile>
